<?xml version="1.0" encoding="utf-8"?>
<!-- Generator: Adobe Illustrator 24.0.0, SVG Export Plug-In . SVG Version: 6.00 Build 0)  -->
<svg version="1.1" id="Layer_1" xmlns="http://www.w3.org/2000/svg" xmlns:xlink="http://www.w3.org/1999/xlink" x="0px" y="0px"
     viewBox="0 0 1130.35 800" enable-background="new 0 0 1130.35 800" xml:space="preserve">
<g id="UH6BVX.tif">
	<g>
		<path d="M1124.23,385.96c-23.54,28.02-54.34,42.94-89.96,47.43c-13.8,1.74-28.16,0.19-42.17-1.03
			c-27.79-2.43-55.52-5.65-83.27-8.57c-33.38-3.52-66.75-7.09-100.13-10.61c-9.62-1.01-19.25-1.92-28.87-2.88
			c-0.07,0.59-0.15,1.19-0.22,1.78c102.05,15.77,204.1,31.53,306.49,47.35c-0.46,0.92-0.56,1.55-0.86,1.66
			c-18.42,7.09-36.51,15.29-55.38,20.85c-17.16,5.06-35.27,8.11-53.27,4.94c-14.85-2.61-29.48-6.65-44.02-10.74
			c-55.34-15.56-110.6-31.39-165.89-47.1c-1.2-0.34-2.46-0.45-3.69-0.67c-0.16,0.52-0.33,1.04-0.49,1.55
			c79.35,28.08,158.7,56.16,238.06,84.23c-0.07,0.45-0.13,0.9-0.2,1.35c-16.69,5.2-32.72,12.78-50.51,14.1
			c-15.62,1.16-30.73-2.17-44.56-8.74c-52.54-24.95-104.74-50.61-157.07-76c-1.57-0.76-3.17-1.43-5.29-1.07
			c57.92,34.66,115.85,69.33,173.77,103.99c-0.06,0.52-0.13,1.04-0.19,1.56c-4.79,0.59-9.58,1.57-14.39,1.71
			c-12.93,0.37-25.91,1.05-38.8,0.32c-11.88-0.67-22.38-6.43-31.85-13.26c-34.54-24.91-68.83-50.15-103.22-75.26
			c-2.37-1.73-4.81-3.38-7.22-5.06c-0.32,0.41-0.64,0.82-0.96,1.23c37.43,30.74,74.87,61.48,112.3,92.21
			c-0.06,0.42-0.13,0.84-0.19,1.26c-3.53,0.3-7.07,0.48-10.57,0.93c-20.64,2.63-38.99-3.34-55.05-15.83
			c-7.96-6.18-14.68-13.98-21.83-21.17c-9.27-9.31-18.42-18.75-27.63-28.11c-0.91-0.92-1.93-1.73-2.9-2.59
			c-0.33,0.25-0.66,0.51-0.99,0.76c15.27,23.28,30.53,46.55,45.84,69.89c-8.25,0.8-35.74-14.02-47.07-23.91
			c-13.76-12.02-21.21-27.84-27.73-44.44c-0.6,0.32-1.2,0.63-1.8,0.95c7.28,22.6,14.56,45.21,22.13,68.68
			c-14.28-2.35-23.27-11.2-31.94-20.61c-8.73-9.48-13.65-20.87-16.28-33.45c-0.41,0.1-0.83,0.21-1.24,0.31
			c0.62,19.66,1.25,39.32,1.87,58.97c-0.55,0.2-1.1,0.41-1.66,0.61c-19.24-11.38-34.59-25.93-39.11-50.89
			c-3.89,7.24-7.17,13.37-11.05,20.58c-0.11-1.95-0.19-2.69-0.19-3.43c0-26.13,0.09-52.26-0.06-78.39
			c-0.02-3.76,0.98-4.94,4.86-5.52c18.79-2.77,36.58-7.98,51.27-21.12c9.05-8.1,14.3-17.66,14.74-29.81
			c0.04-1.16,0.43-2.32,0.36-3.46c-0.23-4.03,1.43-5.32,5.57-5.28c17.48,0.16,34.96-0.1,52.44-0.14
			c128.7-0.32,257.4-0.62,386.09-0.94c1.33,0,2.65-0.1,3.98-0.15C1124.23,385.29,1124.23,385.62,1124.23,385.96z"/>
    <path d="M570.72,4.44c1.31,0.61,2.58,1.35,3.94,1.82c22.95,7.83,29.06,34.64,12.08,51.9c-2.26,2.3-3.8,6.34-3.86,9.6
			c-0.37,20.1-0.09,40.21-0.35,60.31c-0.07,5.62-1.35,11.21-1.85,16.83c-0.71,7.96-0.11,8.19,7.57,10.68
			c8.18,2.65,16.24,5.77,24.12,9.21c6.97,3.05,10.88,8.18,9.7,16.52c-0.64,4.56-0.26,9.31,0,13.95c0.23,4.15-1.33,5.43-5.5,5.41
			c-29.11-0.16-58.22-0.08-87.33-0.08c-5.15,0-10.31-0.14-15.46,0.05c-4.21,0.16-5.58-1.8-5.46-5.75
			c0.17-5.65,0.33-11.32-0.04-16.95c-0.32-4.93,1.63-8.2,5.56-10.82c8.69-5.81,18.29-9.3,28.35-11.81
			c6.99-1.74,8.01-3.43,7.16-10.55c-2.92-24.35-2.53-48.77-0.92-73.17c0.39-5.84-0.57-10.31-4.85-14.8
			c-15.99-16.8-9.24-42.95,12.66-50.43c1.53-0.52,2.98-1.27,4.47-1.92C564.06,4.44,567.39,4.44,570.72,4.44z"/>
    <path d="M415.91,485.55c-3.48,3.4-7.02,6.75-10.44,10.22c-12.38,12.57-24.28,25.65-37.19,37.65
			c-16.61,15.44-36.46,22.75-59.44,20.15c-3.56-0.4-7.15-0.57-10.73-0.84c-0.2-0.46-0.4-0.93-0.59-1.39
			c37.48-30.78,74.96-61.55,112.44-92.33c-0.25-0.38-0.51-0.75-0.76-1.13c-1.71,1.09-3.48,2.08-5.11,3.28
			c-34.65,25.33-69.33,50.61-103.89,76.05c-17.07,12.56-36.3,16.58-57.01,15.07c-8.78-0.64-17.53-1.59-26.29-2.46
			c-1.2-0.12-2.36-0.59-4.89-1.26c59.11-35.37,117.03-70.03,174.95-104.69c-0.19-0.36-0.38-0.73-0.57-1.09
			c-1.42,0.65-2.85,1.29-4.26,1.97c-52.63,25.54-105.04,51.57-158.01,76.38c-21.3,9.97-44.09,12.01-66.98,3.7
			c-9.14-3.32-18.42-6.26-27.81-10.63c79.4-28.09,158.81-56.18,238.21-84.27c-0.08-0.44-0.16-0.87-0.24-1.31
			c-1.11,0.08-2.28-0.02-3.33,0.28c-31.78,9.12-63.5,18.5-95.35,27.38c-36.48,10.18-72.98,20.28-109.66,29.7
			c-15.72,4.04-31.67,1.12-47.52-1.4c-23.51-3.73-44.57-14.09-66.15-23.14c-0.4-0.17-0.64-0.68-1.77-1.94
			c102.86-15.89,204.97-31.67,307.09-47.44c0.01-0.4,0.02-0.8,0.02-1.2c-1.06-0.08-2.14-0.33-3.18-0.23
			c-24.63,2.51-49.25,5.03-73.87,7.6c-27.1,2.83-54.2,5.72-81.3,8.58c-20.98,2.21-41.97,4.22-62.92,6.68
			c-26.61,3.13-51.85-1.21-76.3-12.03c-17.05-7.55-31.59-18.24-44.08-31.9c-0.94-1.03-1.6-2.32-2.83-4.15
			c2.44-0.12,4.02-0.28,5.6-0.27c143.85,0.34,287.71,0.69,431.56,1.05c9.6,0.02,10.08,0.02,10.83,9.28
			c1.88,23.33,17.84,34.69,36.8,42.69c10.43,4.4,21.91,6.33,33.52,9.55c0,27.35,0,55.64,0,84.75c-3.56-6.66-6.78-12.68-10.66-19.93
			c-4.3,24.93-19.85,39.46-40.68,52.01c0.7-20.99,1.36-40.62,2.02-60.25c-0.36-0.21-0.72-0.42-1.09-0.63
			c-6.76,26.2-21.35,45.2-46.82,54.2c-0.5-0.35-1-0.7-1.5-1.05c7.29-22.6,14.57-45.21,21.86-67.81c-0.46-0.23-0.92-0.46-1.37-0.69
			c-1.17,2.13-2.67,4.15-3.44,6.42c-9.51,27.94-29.56,45.47-55.88,56.88c-3.96,1.72-7.95,3.37-11.98,4.93
			c-1.04,0.41-2.26,0.37-4.48,0.69c15.78-24.06,31.1-47.41,46.42-70.75C416.53,486.16,416.22,485.86,415.91,485.55z"/>
    <path d="M567.88,378c9.88,0,18.98,0,29.56,0c0,10.16-0.19,20.09,0.03,30.01c0.95,42.74,2.62,85.48,2.88,128.22
			c0.24,39.73-1.22,79.43-5.22,119.05c-2.94,29.16-7,58.08-13.5,86.6c-3.83,16.81-9.36,33.23-14.17,49.81
			c-0.3,1.03-0.99,1.94-2.01,3.88c-2.43-6.24-5.15-11.41-6.46-16.9c-5.62-23.57-12.35-47.02-15.84-70.92
			c-5.13-35.15-9.75-70.58-11.13-106.03c-1.97-50.83-1.1-101.78-0.87-152.67c0.1-22.61,1.59-45.21,2.47-67.82
			c0.04-1.13,0.25-2.26,0.41-3.57c9.07,0,17.96,0,27.44,0c0,2.44,0,4.39,0,6.35c0,75.06,0,150.11,0,225.17c0,0.83-0.02,1.66,0,2.5
			c0.08,2.6-0.56,5.91,3.42,5.94c4.22,0.03,3.21-3.49,3.21-5.94c-0.05-75.55-0.15-151.11-0.24-226.66
			C567.88,382.86,567.88,380.73,567.88,378z"/>
    <path d="M141.63,256.07c0,4.63,0,8.54,0,12.4c-3.6,1.19-7.16,2.06-10.45,3.54c-4.14,1.86-7.31,4.85-6.99,9.91
			c0.33,5.28,2.95,9.4,8.02,10.98c7.76,2.41,15.71,4.18,23.57,6.28c18.44,4.94,36.91,9.77,55.26,15c4.07,1.16,8.04,3.33,11.49,5.8
			c8.47,6.07,10.74,14.98,9.41,24.77c-1.19,8.77-6.92,14.25-15.02,17c-19.27,6.53-39.31,7.71-59.87,8.25c0-4.2,0-8.1,0-12.35
			c2.67-0.84,5.75-1.49,8.55-2.75c4.73-2.14,9.49-4.48,9.52-10.85c0.03-7.1-2.5-13.07-9.36-15.58c-9.02-3.3-18.33-5.88-27.6-8.45
			c-16.16-4.49-32.4-8.67-48.56-13.13c-3.18-0.88-6.31-2.16-9.21-3.72c-7.97-4.27-12.32-10.6-11.89-20.14
			c0.42-9.2,5.18-14.64,13.18-18.12c11.47-4.99,23.67-6.44,35.93-7.5C125.48,256.71,133.41,256.51,141.63,256.07z"/>
    <path d="M694.1,258.33c20.32,0,40.23,0,60.41,0c0,36.5,0,72.73,0,109.39c-19.99,0-40.03,0-60.41,0
			C694.1,331.43,694.1,295.08,694.1,258.33z"/>
    <path d="M570.96,369.7c0-4.88,0-8.67,0-12.35c0.44-0.3,0.69-0.62,0.99-0.66c13.87-2.06,13.76-8.42,13.81-18.35
			c0.1-24.77,0.03-49.54,0.04-74.31c0-1.79,0-3.58,0-5.66c20.32,0,40.18,0,60.46,0c0.08,1.73,0.22,3.34,0.22,4.95
			c0.01,23.94,0.01,47.88,0,71.82c0,1.49-0.09,2.99-0.11,4.48c-0.09,10.47-5.75,16.71-15.03,20.67c-12.73,5.43-26.17,7.3-39.75,8.47
			C584.85,369.32,578.07,369.39,570.96,369.7z"/>
    <path d="M768.53,270.09c0-3.63,0-7.43,0-11.2c0.28-0.25,0.53-0.65,0.78-0.65c20.97-0.35,41.91-0.29,62.57,4.15
			c0.16,0.03,0.33,0.07,0.48,0.12c25.11,7.67,24.56,10.11,28.72,35.26c2.9,17.51,0.96,34.74-5.32,51.49
			c-2.02,5.4-5.12,9.69-10.41,11.28c-8.84,2.65-17.87,5.74-26.97,6.3c-16.37,1.01-32.85,0.28-49.68,0.28c0-3.34,0-7.39,0-11.75
			c4.3-0.43,8.56-0.85,12.82-1.27c14.84-1.47,21.61-7.04,23.08-21.88c1.57-15.83,1.98-31.81-1.84-47.59
			c-1.57-6.48-5.08-10.38-11.47-11.44C783.96,271.96,776.56,271.15,768.53,270.09z"/>
    <path d="M557.17,369.97c-9.01-0.72-17.46-0.95-25.76-2.19c-9.84-1.47-19.66-3.37-29.28-5.88c-12.49-3.26-20.21-10.69-20.08-24.76
			c0.25-26.11,0.07-52.21,0.07-78.71c20.14,0,40.15,0,60.76,0c0,1.85,0,3.63,0,5.4c0,24.47-0.02,48.94,0.02,73.41
			c0.01,2.98,0.39,5.96,0.54,8.95c0.28,5.49,3.44,8.86,8.53,9.52c4.73,0.61,5.65,2.94,5.24,6.97
			C556.99,364.78,557.17,366.92,557.17,369.97z"/>
    <path d="M976.97,256.03c0,4.73,0,8.65,0,12.51c-13.58,4.23-14.68,5.63-14.71,19.72c-0.04,16.96-0.14,33.92,0.13,50.87
			c0.23,14.25,2.02,16.08,16.11,18.48c0,3.84,0,7.75,0,12.91c-10.66-0.93-21.27-1.16-31.62-2.95c-10.07-1.74-20.07-4.49-29.72-7.86
			c-10.65-3.72-15.96-11.8-15.67-23.42c0.43-17.42,0.58-34.85,0.9-52.27c0.14-7.91,4.77-12.58,11.38-16.14
			c13.37-7.2,28.03-9.01,42.73-10.6C963.08,256.57,969.73,256.45,976.97,256.03z"/>
    <path d="M346.64,370.62c-11.34-1.01-22.08-1.5-32.67-3.06c-8.67-1.28-17.31-3.31-25.66-5.96c-13.25-4.2-20.72-14.25-21.87-27.59
			c-1.16-13.49-1.19-27.24,0.05-40.71c1.22-13.26,8.6-23.04,21.89-27.61c18.11-6.22,36.8-8.56,55.83-8.9
			c0.62-0.01,1.25,0.27,2.14,0.48c0,4.32,0,8.57,0,12.75c-0.36,0.26-0.61,0.58-0.89,0.61c-12.61,1.65-15.1,3.75-17.55,16.32
			c-3.27,16.76-3.68,33.67-0.9,50.53c1.52,9.2,6.25,15.94,16.27,17.82c1.31,0.25,3.01,2.34,3.21,3.77
			C346.96,362.45,346.64,365.94,346.64,370.62z"/>
    <path d="M992.62,370.24c0-4.9,0-8.69,0-12.61c1.83-0.56,3.56-1.05,5.26-1.62c5.29-1.78,8.46-5.45,8.49-11.05
			c0.14-21.59,0.17-43.18,0.02-64.77c-0.04-5.22-3.16-8.6-8.28-9.91c-2.25-0.58-4.53-0.99-7.11-1.54c0-3.94,0-7.83,0-12.63
			c6.31,0.36,12.58,0.26,18.71,1.17c11.46,1.7,23.12,3,34.17,6.25c19.19,5.64,23.46,11.41,24.07,31.32
			c0.45,14.76-0.39,29.55-0.73,44.33c-0.21,9.22-4.82,15.5-12.99,19.62c-12.88,6.49-26.82,8.52-40.87,10.05
			C1006.63,369.57,999.85,369.77,992.62,370.24z"/>
    <path d="M527.5,206.08c25.41,0,50.26,0,75.71,0c-1.39,15.14-2.74,29.74-4.12,44.79c-10.07,0-19.76,0-29.64,0
			c0-10.35,0-20.74,0-31.53c-2.41,0-5.14,0-8.17,0c0,10.34,0,20.85,0,31.72c-9.64,0-19.34,0-29.77,0
			C530.19,236.15,528.85,221.21,527.5,206.08z"/>
    <path d="M363.41,256.67c21.71,0.31,42.83,2.22,62.68,10.83c11.95,5.18,14.59,11.09,13.27,26.18c-19.79,0-39.62,0-60.09,0
			c0-3.68,0.04-7.3-0.01-10.92c-0.11-7.29-2.79-10.4-10.01-11.58c-1.79-0.29-3.63-0.32-5.84-0.5
			C363.41,266.23,363.41,261.86,363.41,256.67z"/>
    <path d="M363.18,370.25c0-5.34,0-9.61,0-14.51c14.11-0.22,18.47-8.31,15.77-21.53c20.59,0,40.39,0,60.17,0
			c1.67,10.88-3.19,20.18-13.19,24.8c-13.13,6.06-27.24,8.25-41.44,9.83C377.6,369.61,370.65,369.78,363.18,370.25z"/>
    <path d="M142.76,357.08c0,4.5,0,8.4,0,13.28c-9.04-0.81-17.8-1.17-26.42-2.5c-9.48-1.46-19.02-3.19-28.19-5.94
			c-14.48-4.36-19.51-13.21-17.42-28.79c17.97,0,35.98,0,54.79,0C123.88,346.42,125.8,357.49,142.76,357.08z"/>
    <path d="M626.67,578.42c3.96-6.05,7.67-11.71,11.73-17.92c7.25,5.05,14.24,9.92,21.3,14.84c-14.08,28.36-34.25,51.27-58.82,71.89
			c0.05-8.27-0.13-15.28,4.35-22.03c7.79-11.73,14.73-24.03,22.1-36.04C629.66,585.39,631.9,581.78,626.67,578.42z"/>
    <path d="M470.29,575.39c6.96-4.88,13.85-9.71,21.24-14.89c3.69,5.6,7.3,10.91,10.69,16.36c0.42,0.68,0.12,2.44-0.49,3.02
			c-3,2.82-1.42,5.36,0.15,7.96c7.48,12.34,14.57,24.95,22.63,36.9c4.66,6.91,4.24,14.14,4.75,22.54
			C504.68,626.89,484.7,603.97,470.29,575.39z"/>
    <path d="M155.82,268.99c0-4.45,0-8.23,0-12.89c6.56,0.37,13.01,0.22,19.29,1.18c12.75,1.96,25.61,3.75,38.04,7.06
			c10.52,2.81,14.45,11.07,12.66,22.38c-17.98,0-36,0-54.69,0C172.95,275.07,166.67,270.1,155.82,268.99z"/>
    <path d="M526.86,619.71c-5.64-10.07-10.56-19.83-16.44-28.98c-3.44-5.34-3.51-9.38,0.84-13.79c1.15-1.17,1.95-2.68,2.87-4.07
			c4.5-6.76,11.01-12.65,8.55-22.47c0.51,0.15,1.03,0.31,1.54,0.46C525.09,573.55,525.96,596.23,526.86,619.71z"/>
    <path d="M603.16,619.65c0.92-23.9,1.8-46.73,2.68-69.56c-0.79,13.13,9.52,20.66,15.41,30.34c1.51,2.49,1.78,4.11,0.32,6.62
			C615.49,597.54,609.63,608.14,603.16,619.65z"/>
    <path d="M661.42,569.41c0-12.67,0-25.35,0-38.75c4.02,4.45,7.85,8.64,11.59,12.91c0.46,0.53,0.76,1.66,0.52,2.26
			c-3.32,8.03-6.75,16.02-10.15,24.01C662.73,569.7,662.07,569.55,661.42,569.41z"/>
    <path d="M466.76,569.87c-1.63-3.65-3.33-7.28-4.87-10.97c-1.96-4.71-5.84-9.83-5.1-14.11c0.75-4.32,6.15-7.83,9.53-11.69
			c0.65-0.74,1.36-1.43,2.14-2.25c0,13,0,25.8,0,38.61C467.89,569.59,467.33,569.73,466.76,569.87z"/>
	</g>
</g>
</svg>
